<svg width="45" height="45" viewBox="0 0 45 45" fill="none" xmlns="http://www.w3.org/2000/svg">
<rect width="45" height="45" rx="22.5" fill="#2F499D"/>
<path d="M23.9123 21.424C25.5283 21.824 26.6963 22.4 27.4163 23.152C28.1523 23.904 28.5203 24.912 28.5203 26.176C28.5203 27.184 28.2723 28.072 27.7763 28.84C27.2803 29.608 26.5763 30.2 25.6643 30.616C24.7523 31.032 23.7043 31.24 22.5203 31.24C20.6803 31.24 19.2243 30.76 18.1523 29.8C17.0963 28.84 16.5363 27.576 16.4723 26.008H19.2323C19.2963 26.888 19.6243 27.584 20.2163 28.096C20.8083 28.592 21.6323 28.84 22.6883 28.84C23.6163 28.84 24.3603 28.616 24.9203 28.168C25.4803 27.704 25.7603 27.104 25.7603 26.368C25.7603 25.76 25.5443 25.264 25.1123 24.88C24.6963 24.496 24.0243 24.192 23.0963 23.968L21.2723 23.488C19.6883 23.088 18.5363 22.52 17.8163 21.784C17.1123 21.048 16.7603 20.064 16.7603 18.832C16.7603 17.872 17.0003 17.024 17.4803 16.288C17.9603 15.536 18.6323 14.96 19.4963 14.56C20.3763 14.144 21.3843 13.936 22.5203 13.936C23.6723 13.936 24.6723 14.16 25.5203 14.608C26.3683 15.056 27.0243 15.664 27.4883 16.432C27.9523 17.2 28.2083 18.048 28.2563 18.976H25.4483C25.3683 18.176 25.0643 17.536 24.5363 17.056C24.0083 16.576 23.2963 16.336 22.4003 16.336C21.5363 16.336 20.8403 16.552 20.3123 16.984C19.7843 17.4 19.5203 17.952 19.5203 18.64C19.5203 19.232 19.7123 19.712 20.0963 20.08C20.4803 20.432 21.0963 20.712 21.9443 20.92L23.9123 21.424Z" fill="white"/>
</svg>
