<svg width="45" height="45" viewBox="0 0 45 45" fill="none" xmlns="http://www.w3.org/2000/svg">
<rect width="45" height="45" rx="22.5" fill="#2F499D"/>
<path d="M30.5991 31H27.3591L24.2391 25.84C23.9991 25.44 23.7111 25.16 23.3751 25C23.0551 24.84 22.6231 24.76 22.0791 24.76H18.9591V31H16.1991V14.2H22.6791C23.8951 14.2 24.9591 14.416 25.8711 14.848C26.7991 15.28 27.5191 15.896 28.0311 16.696C28.5431 17.48 28.7991 18.384 28.7991 19.408C28.7991 20.432 28.5191 21.336 27.9591 22.12C27.4151 22.888 26.6871 23.448 25.7751 23.8C26.0951 24.008 26.4311 24.384 26.7831 24.928L30.5991 31ZM22.6791 22.48C23.6871 22.48 24.4951 22.208 25.1031 21.664C25.7271 21.12 26.0391 20.408 26.0391 19.528C26.0391 18.648 25.7271 17.944 25.1031 17.416C24.4951 16.872 23.6871 16.6 22.6791 16.6H18.9591V22.48H22.6791Z" fill="white"/>
</svg>
