<svg width="133" height="26" viewBox="0 0 133 26" fill="none" xmlns="http://www.w3.org/2000/svg">
<path d="M-5.57452e-05 12.996C-5.57452e-05 11.196 0.335944 9.51599 1.00794 7.95599C1.70394 6.37199 2.63994 4.99199 3.81594 3.81599C4.99194 2.63999 6.35994 1.71599 7.91994 1.04399C9.50394 0.347986 11.1959 -1.50204e-05 12.9959 -1.50204e-05C14.1239 -1.50204e-05 15.2039 0.143985 16.2359 0.431986C17.2919 0.695985 18.2759 1.07999 19.1879 1.58399C20.1239 2.08799 20.9759 2.69999 21.7439 3.41999C22.5119 4.11599 23.1839 4.89599 23.7599 5.75999L20.5919 8.17199C19.7999 6.92399 18.7319 5.91599 17.3879 5.14799C16.0679 4.37999 14.6039 3.99599 12.9959 3.99599C11.7479 3.99599 10.5719 4.23599 9.46794 4.71599C8.38794 5.17199 7.43994 5.80799 6.62394 6.62399C5.80794 7.43999 5.15994 8.39999 4.67994 9.50399C4.22394 10.584 3.99594 11.748 3.99594 12.996C3.99594 14.244 4.22394 15.42 4.67994 16.524C5.15994 17.604 5.80794 18.552 6.62394 19.368C7.43994 20.184 8.38794 20.832 9.46794 21.312C10.5719 21.768 11.7479 21.996 12.9959 21.996C14.0279 21.996 14.9879 21.864 15.8759 21.6C16.7879 21.312 17.6039 20.928 18.3239 20.448C19.0439 19.944 19.6559 19.344 20.1599 18.648C20.6639 17.952 21.0359 17.196 21.2759 16.38H12.2399V12.6H25.6319V14.472C25.6319 16.056 25.2959 17.544 24.6239 18.936C23.9759 20.328 23.0879 21.552 21.9599 22.608C20.8319 23.64 19.4999 24.468 17.9639 25.092C16.4279 25.692 14.7719 25.992 12.9959 25.992C11.1959 25.992 9.50394 25.656 7.91994 24.984C6.35994 24.288 4.99194 23.352 3.81594 22.176C2.63994 21 1.70394 19.632 1.00794 18.072C0.335944 16.488 -5.57452e-05 14.796 -5.57452e-05 12.996ZM34.2556 25.524C33.8476 25.572 33.4636 25.62 33.1036 25.668C32.7436 25.716 32.3836 25.74 32.0236 25.74C31.4716 25.74 30.9556 25.668 30.4756 25.524C30.0196 25.404 29.6236 25.176 29.2876 24.84C28.9516 24.504 28.6876 24.06 28.4956 23.508C28.3036 22.932 28.2076 22.2 28.2076 21.312V0.323985H31.9876V21.06C31.9876 21.636 32.1676 21.972 32.5276 22.068C32.9116 22.164 33.4876 22.152 34.2556 22.032V25.524ZM44.6723 25.992C43.3763 25.992 42.1523 25.752 41.0003 25.272C39.8483 24.768 38.8403 24.084 37.9763 23.22C37.1363 22.356 36.4643 21.348 35.9603 20.196C35.4803 19.044 35.2403 17.82 35.2403 16.524C35.2403 15.228 35.4803 14.016 35.9603 12.888C36.4643 11.736 37.1363 10.728 37.9763 9.86399C38.8403 8.99999 39.8483 8.32799 41.0003 7.84799C42.1523 7.34399 43.3763 7.09199 44.6723 7.09199C45.9683 7.09199 47.1923 7.34399 48.3443 7.84799C49.4963 8.32799 50.4923 8.99999 51.3323 9.86399C52.1963 10.728 52.8683 11.736 53.3483 12.888C53.8523 14.016 54.1043 15.228 54.1043 16.524C54.1043 17.82 53.8523 19.044 53.3483 20.196C52.8683 21.348 52.1963 22.356 51.3323 23.22C50.4923 24.084 49.4963 24.768 48.3443 25.272C47.1923 25.752 45.9683 25.992 44.6723 25.992ZM44.6723 22.212C45.4643 22.212 46.1963 22.068 46.8683 21.78C47.5643 21.468 48.1643 21.06 48.6683 20.556C49.1723 20.028 49.5683 19.428 49.8563 18.756C50.1683 18.06 50.3243 17.316 50.3243 16.524C50.3243 15.732 50.1683 15 49.8563 14.328C49.5683 13.632 49.1723 13.032 48.6683 12.528C48.1643 12.024 47.5643 11.628 46.8683 11.34C46.1963 11.028 45.4643 10.872 44.6723 10.872C43.8803 10.872 43.1363 11.028 42.4403 11.34C41.7683 11.628 41.1683 12.024 40.6403 12.528C40.1363 13.032 39.7283 13.632 39.4163 14.328C39.1283 15 38.9843 15.732 38.9843 16.524C38.9843 17.316 39.1283 18.06 39.4163 18.756C39.7283 19.428 40.1363 20.028 40.6403 20.556C41.1683 21.06 41.7683 21.468 42.4403 21.78C43.1363 22.068 43.8803 22.212 44.6723 22.212ZM55.4031 0.323985H59.1831V10.08C59.8311 9.19199 60.6351 8.47199 61.5951 7.91999C62.5551 7.36799 63.6951 7.09199 65.0151 7.09199C66.3831 7.09199 67.6071 7.33199 68.6871 7.81199C69.7911 8.29199 70.7271 8.96399 71.4951 9.82799C72.2631 10.668 72.8511 11.664 73.2591 12.816C73.6911 13.968 73.9071 15.216 73.9071 16.56C73.9071 17.88 73.6911 19.116 73.2591 20.268C72.8511 21.42 72.2631 22.428 71.4951 23.292C70.7271 24.132 69.7911 24.792 68.6871 25.272C67.6071 25.752 66.3831 25.992 65.0151 25.992C63.6951 25.992 62.5551 25.728 61.5951 25.2C60.6351 24.648 59.8311 23.928 59.1831 23.04V25.524H55.4031V0.323985ZM64.9071 22.464C65.6991 22.464 66.4191 22.308 67.0671 21.996C67.7151 21.684 68.2671 21.264 68.7231 20.736C69.2031 20.184 69.5631 19.56 69.8031 18.864C70.0671 18.144 70.1991 17.376 70.1991 16.56C70.1991 15.744 70.0671 14.988 69.8031 14.292C69.5631 13.572 69.2031 12.948 68.7231 12.42C68.2671 11.868 67.7151 11.436 67.0671 11.124C66.4191 10.812 65.6991 10.656 64.9071 10.656C64.0911 10.656 63.3351 10.8 62.6391 11.088C61.9431 11.376 61.3431 11.784 60.8391 12.312C60.3351 12.84 59.9391 13.464 59.6511 14.184C59.3631 14.904 59.2191 15.684 59.2191 16.524C59.2191 17.364 59.3631 18.156 59.6511 18.9C59.9391 19.62 60.3351 20.244 60.8391 20.772C61.3431 21.3 61.9431 21.72 62.6391 22.032C63.3351 22.32 64.0911 22.464 64.9071 22.464ZM84.981 7.05599C86.325 7.05599 87.549 7.30799 88.653 7.81199C89.757 8.31599 90.705 8.99999 91.497 9.86399C92.289 10.728 92.901 11.736 93.333 12.888C93.789 14.04 94.017 15.264 94.017 16.56C94.017 16.824 94.005 17.064 93.981 17.28C93.957 17.472 93.921 17.688 93.873 17.928H79.329C79.593 19.296 80.253 20.436 81.309 21.348C82.365 22.236 83.709 22.68 85.341 22.68C86.349 22.68 87.297 22.464 88.185 22.032C89.073 21.6 89.733 21.036 90.165 20.34L93.117 22.068C92.301 23.292 91.221 24.252 89.877 24.948C88.557 25.644 87.021 25.992 85.269 25.992C83.805 25.992 82.473 25.752 81.273 25.272C80.073 24.792 79.053 24.132 78.213 23.292C77.373 22.428 76.713 21.42 76.233 20.268C75.777 19.116 75.549 17.868 75.549 16.524C75.549 15.18 75.777 13.932 76.233 12.78C76.689 11.628 77.325 10.632 78.141 9.79199C78.981 8.95199 79.977 8.29199 81.129 7.81199C82.305 7.30799 83.589 7.05599 84.981 7.05599ZM90.417 14.94C90.225 13.5 89.637 12.384 88.653 11.592C87.693 10.776 86.457 10.368 84.945 10.368C84.153 10.368 83.409 10.5 82.713 10.764C82.041 11.004 81.453 11.34 80.949 11.772C80.445 12.18 80.037 12.66 79.725 13.212C79.437 13.764 79.293 14.34 79.293 14.94H90.417ZM104.819 25.992C103.523 25.992 102.299 25.752 101.147 25.272C99.995 24.768 98.987 24.084 98.123 23.22C97.283 22.356 96.611 21.348 96.107 20.196C95.627 19.044 95.387 17.82 95.387 16.524C95.387 15.228 95.627 14.016 96.107 12.888C96.611 11.736 97.283 10.728 98.123 9.86399C98.987 8.99999 99.995 8.32799 101.147 7.84799C102.299 7.34399 103.523 7.09199 104.819 7.09199C106.115 7.09199 107.339 7.34399 108.491 7.84799C109.643 8.32799 110.639 8.99999 111.479 9.86399C112.343 10.728 113.015 11.736 113.495 12.888C113.999 14.016 114.251 15.228 114.251 16.524C114.251 17.82 113.999 19.044 113.495 20.196C113.015 21.348 112.343 22.356 111.479 23.22C110.639 24.084 109.643 24.768 108.491 25.272C107.339 25.752 106.115 25.992 104.819 25.992ZM104.819 22.212C105.611 22.212 106.343 22.068 107.015 21.78C107.711 21.468 108.311 21.06 108.815 20.556C109.319 20.028 109.715 19.428 110.003 18.756C110.315 18.06 110.471 17.316 110.471 16.524C110.471 15.732 110.315 15 110.003 14.328C109.715 13.632 109.319 13.032 108.815 12.528C108.311 12.024 107.711 11.628 107.015 11.34C106.343 11.028 105.611 10.872 104.819 10.872C104.027 10.872 103.283 11.028 102.587 11.34C101.915 11.628 101.315 12.024 100.787 12.528C100.283 13.032 99.875 13.632 99.563 14.328C99.275 15 99.131 15.732 99.131 16.524C99.131 17.316 99.275 18.06 99.563 18.756C99.875 19.428 100.283 20.028 100.787 20.556C101.315 21.06 101.915 21.468 102.587 21.78C103.283 22.068 104.027 22.212 104.819 22.212ZM132.484 25.524H128.704V14.76C128.704 13.896 128.56 13.188 128.272 12.636C128.008 12.084 127.66 11.64 127.228 11.304C126.82 10.968 126.364 10.74 125.86 10.62C125.356 10.476 124.864 10.404 124.384 10.404C123.928 10.404 123.448 10.488 122.944 10.656C122.464 10.8 122.02 11.064 121.612 11.448C121.204 11.832 120.868 12.348 120.604 12.996C120.364 13.644 120.244 14.46 120.244 15.444V25.524H116.464V7.52399H120.244V9.32399C120.844 8.69999 121.564 8.17199 122.404 7.73999C123.244 7.28399 124.192 7.05599 125.248 7.05599C125.896 7.05599 126.64 7.16399 127.48 7.37999C128.32 7.57199 129.1 7.95599 129.82 8.53199C130.564 9.10799 131.188 9.89999 131.692 10.908C132.22 11.892 132.484 13.176 132.484 14.76V25.524Z" fill="#1E1E1E"/>
</svg>
